<svg xmlns:dc="http://purl.org/dc/elements/1.1/" xmlns:cc="http://creativecommons.org/ns#" xmlns:rdf="http://www.w3.org/1999/02/22-rdf-syntax-ns#" xmlns:svg="http://www.w3.org/2000/svg" xmlns="http://www.w3.org/2000/svg" xmlns:sodipodi="http://sodipodi.sourceforge.net/DTD/sodipodi-0.dtd" xmlns:inkscape="http://www.inkscape.org/namespaces/inkscape" version="1.1" x="0px" y="0px" viewBox="0 0 99.999999 124.99999875" xml:space="preserve"><path style="font-size:medium;font-style:normal;font-variant:normal;font-weight:normal;font-stretch:normal;text-indent:0;text-align:start;text-decoration:none;line-height:normal;letter-spacing:normal;word-spacing:normal;text-transform:none;direction:ltr;block-progression:tb;writing-mode:lr-tb;text-anchor:start;baseline-shift:baseline;opacity:1;color:#FFFFFF;fill:#FFFFFF;fill-opacity:1;stroke:none;stroke-width:1;marker:none;visibility:visible;display:inline;overflow:visible;enable-background:accumulate;font-family:Sans;-inkscape-font-specification:Sans" d="M 54.875,6.0006388 A 2.0001998,2.0001853 0 0 0 54.71875,9.96936 c 2.87466,0.410663 7.152933,2.571991 10.5,5.624959 3.337128,3.043902 5.708455,6.896293 5.78125,10.406175 l -49.0625,0 c -3.759647,0 -6.9375,2.981959 -6.9375,6.718701 l 0,2.562481 c 0,3.736742 3.177853,6.718701 6.9375,6.718701 l 8.25,0 3.59375,34.718498 -1.84375,0 c -3.867569,0 -6.9375,3.308644 -6.9375,7.218698 l 0,2.843729 C 25,90.691356 28.069931,94 31.9375,94 l 36.125,0 C 71.930069,94 75,90.691356 75,86.781302 l 0,-2.843729 c 0,-3.910054 -3.069931,-7.218698 -6.9375,-7.218698 l -1.84375,0 3.59375,-34.718498 8.25,0 c 3.759647,0 6.9375,-2.981959 6.9375,-6.718701 l 0,-2.562481 c 0,-3.736742 -3.177853,-6.718701 -6.9375,-6.718701 l -3.0625,0 a 2.0002441,2.0002296 0 0 0 0,-0.03125 C 74.91302,20.806219 71.772621,16.183483 67.90625,12.656841 64.039879,9.1301981 59.40659,6.6212186 55.28125,6.0318886 A 2.0001998,2.0001853 0 0 0 54.875,6.0006388 z m -32.9375,23.9998262 56.125,0 c 1.704233,0 2.9375,1.224244 2.9375,2.71873 l 0,2.562481 c 0,1.494486 -1.233267,2.718731 -2.9375,2.718731 l -56.125,0 C 20.233267,38.000407 19,36.776162 19,35.281676 l 0,-2.562481 c 0,-1.494486 1.233267,-2.71873 2.9375,-2.71873 z m 12.28125,11.999912 31.5625,0 L 62,78.531362 a 2.0001995,2.000185 0 0 0 2,2.187484 l 4.0625,0 c 1.596313,0 2.9375,1.341041 2.9375,3.218727 l 0,2.843729 c 0,1.877689 -1.341187,3.218727 -2.9375,3.218727 l -36.125,0 C 30.341187,90.000029 29,88.658991 29,86.781302 l 0,-2.843729 c 0,-1.877686 1.341187,-3.218727 2.9375,-3.218727 l 4.0625,0 a 2.0001995,2.000185 0 0 0 2,-2.187484 L 34.21875,42.000377 z"/></svg>
